<svg width="868" height="574" viewBox="0 0 868 574" fill="none" xmlns="http://www.w3.org/2000/svg">
<path d="M325.437 452.704H385.671V512.938H325.437V452.704ZM385.671 392.47H445.905V452.704H385.671V392.47ZM445.905 332.236H506.139V392.47H445.905V332.236ZM506.139 272.002H566.373V332.236H506.139V272.002ZM566.373 211.768H626.607V272.002H566.373V211.768ZM626.607 151.534H686.841V211.768H626.607V151.534ZM265.203 512.938H325.437V573.172H265.203V512.938ZM506.139 392.47H566.373V452.704H506.139V392.47ZM566.373 392.47H626.607V452.704H566.373V392.47ZM566.373 452.704H626.607V512.938H566.373V452.704ZM626.607 512.938H686.841V573.172H626.607V512.938ZM686.841 332.236H747.075V392.47H686.841V332.236ZM626.607 332.236H686.841V392.47H626.607V332.236ZM747.075 272.002H807.309V332.236H747.075V272.002ZM807.309 272.002H867.543V332.236H807.309V272.002Z" fill="black"/>
<path d="M572.223 0H632.457V60.2341H572.223V0ZM481.872 120.468H542.106V180.702H481.872V120.468ZM421.638 180.702H481.872V240.936H421.638V180.702ZM361.404 240.936H421.638V301.17H361.404V240.936ZM301.17 301.17H361.404V361.404H301.17V301.17ZM240.936 361.404H301.17V421.638H240.936V361.404ZM120.468 481.872H180.702V542.106H120.468V481.872ZM0 421.638H60.234V481.872H0V421.638ZM60.234 481.872H120.468V542.106H60.234V481.872ZM180.702 421.638H240.936V481.872H180.702V421.638ZM421.638 120.468H481.872V180.702H421.638V120.468ZM361.404 120.468H421.638V180.702H361.404V120.468ZM301.17 120.468H361.404V180.702H301.17V120.468Z" fill="black"/>
</svg>
