<svg width="194" height="207" viewBox="0 0 194 207" fill="none" xmlns="http://www.w3.org/2000/svg">
<path d="M99 0C110.598 0 120 9.40202 120 21C120 26.8853 117.579 32.2046 113.678 36.017C109.715 39.8904 105.868 44.5667 105.868 50.1082V86.7871C105.868 95.2385 116.376 99.1372 121.889 92.7314L138.871 72.9988C142.539 68.7371 142.615 62.5771 142.092 56.9789C142.031 56.3274 142 55.6674 142 55C142 43.402 151.402 34 163 34C174.598 34 184 43.402 184 55C184 66.598 174.598 76 163 76C158.601 76 153.94 76.9509 151.071 80.2851L128.33 106.708C123.246 112.616 127.443 121.766 135.237 121.766H142.573C148.508 121.766 153.412 117.377 157.381 112.963C161.225 108.688 166.798 106 173 106C184.598 106 194 115.402 194 127C194 138.598 184.598 148 173 148C167.516 148 162.524 145.898 158.784 142.456C155.049 139.018 150.66 135.766 145.584 135.766H114.981C109.948 135.766 105.868 139.846 105.868 144.879V149.318C105.868 157.591 105.446 165.236 102.73 171.913C100.893 176.432 98.1419 180.211 94.3676 183.481C91.1888 186.235 89.039 190.029 87.4514 193.923C84.3248 201.594 76.7946 207 68 207C56.402 207 47 197.598 47 186C47 174.402 56.402 165 68 165C71.7937 165 75.3521 166.006 78.4234 167.766C82.4259 170.06 88.0239 170.913 89.7617 166.64C91.3553 162.721 91.8682 157.523 91.8682 149.318V144.879C91.8682 139.846 87.7879 135.766 82.7549 135.766H48.4163C43.3397 135.766 38.9508 139.018 35.2156 142.456C31.4758 145.898 26.4837 148 21 148C9.40202 148 0 138.598 0 127C0 115.402 9.40202 106 21 106C27.2016 106 32.7752 108.688 36.6192 112.963C40.5878 117.377 45.4921 121.766 51.4275 121.766H61.8223C69.8916 121.766 73.98 112.051 68.3389 106.281L47.5694 85.0375C44.3856 81.7811 39.5542 81 35 81C23.402 81 14 71.598 14 60C14 48.402 23.402 39 35 39C46.598 39 56 48.402 56 60C56 60.4105 55.9882 60.8183 55.9649 61.2229C55.6276 67.0901 55.9484 73.5819 60.0568 77.7841L76.2383 94.335C81.9487 100.176 91.8678 96.1332 91.8682 87.9648V49.8846C91.8682 44.4071 88.1058 39.7691 84.2157 35.9129C80.3773 32.108 78 26.8318 78 21C78 9.40202 87.402 0 99 0Z" fill="black"/>
</svg>
